<svg xmlns="http://www.w3.org/2000/svg" viewBox="0 0 512 512">
  <defs>
    <linearGradient id="grad" x1="0%" y1="0%" x2="100%" y2="100%">
      <stop offset="0%" style="stop-color:#0d6efd;stop-opacity:1" />
      <stop offset="100%" style="stop-color:#6610f2;stop-opacity:1" />
    </linearGradient>
  </defs>

  <!-- Background circle -->
  <circle cx="256" cy="256" r="240" fill="url(#grad)"/>

  <!-- Shopping cart icon -->
  <g fill="white" transform="translate(96, 96) scale(0.625)">
    <!-- Cart body -->
    <path d="M96 0C107.5 0 117.4 8.19 119.6 19.51L121.1 32H541.8C562.1 32 578.3 52.25 572.6 72.66L518.6 264.7C514.7 278.5 502.1 288 487.8 288H170.7L179.9 336H488C501.3 336 512 346.7 512 360C512 373.3 501.3 384 488 384H159.1C148.5 384 138.6 375.8 136.4 364.5L76.14 48H24C10.75 48 0 37.25 0 24C0 10.75 10.75 0 24 0H96z"/>
    <!-- Cart wheels -->
    <circle cx="176" cy="456" r="40"/>
    <circle cx="456" cy="456" r="40"/>
    <!-- Price tag -->
    <g transform="translate(280, 80)">
      <rect x="0" y="0" width="120" height="80" rx="10" fill="#ffc107"/>
      <text x="60" y="55" text-anchor="middle" font-size="40" font-weight="bold" fill="#333">฿</text>
    </g>
    <!-- Down arrow (price drop indicator) -->
    <path d="M340 200 L380 160 L360 160 L360 120 L320 120 L320 160 L300 160 Z" fill="#28a745"/>
  </g>
</svg>
